<svg version="1.1" id="Layer_1" xmlns="http://www.w3.org/2000/svg" x="0" y="0" viewBox="0 0 640 480" xml:space="preserve"><g fill="#FFF"><path d="M104 44.5v124.7h429.5V44.5H104zm87.4 99.5h-11.1l-27.2-36.8c-6.6-9.1-13-18.4-13.1-18.4h-.1c-.1 0 .2 10 .2 23.4V144h-11.9V69.2h11.1l27.5 36.9c5.3 7.3 12.8 17.7 12.9 17.7h.1c.1 0-.2-11-.2-22.8V69.2h11.9V144zm51.9 1.5c-21.5 0-38.8-16.3-38.8-38.9 0-22.5 17.3-38.9 38.8-38.9 21.5 0 38.9 16.3 38.9 38.9 0 22.6-17.4 38.9-38.9 38.9zm94.2-1.5l-15.8-26.8c-.7.1-1.5.1-2.4.1h-12.6V144h-11.9V69.2h24.5c18 0 28.7 9.5 28.7 24.3 0 10.5-5.4 18.1-15 21.6l17.7 29h-13.2zm78.7-63.6h-24.3V144h-11.8V80.4H356V69.2h60.2v11.2zm71.7 63.6H476v-32.8h-36.5V144h-11.9V69.2h11.9v31H476v-31h11.9V144z"/><path d="M243.3 79.4c-15.4 0-26.6 10.9-26.6 27.2 0 16.1 11.2 27.2 26.6 27.2 15.3 0 26.6-11.1 26.6-27.2 0-16.3-11.3-27.2-26.6-27.2zM320.8 80.4h-14v26.5h14c10.1 0 15.1-6 15.1-13.4-.1-7.7-5.4-13.1-15.1-13.1zM104 178.1v124.7h337V178.1H104zm102.7 100.4h-11.3l-12.5-39.4c-3.1-9.9-3.9-14.5-4-14.5h-.1c-.1 0-.9 4.7-4 14.5l-12.5 39.4H151l-25.4-78.1h13.1l14.8 47.4c2.1 6.9 3.2 11.8 3.3 11.8h.1c.1 0 1.1-4.9 3.6-11.8l12.8-37.9h11.2l12.8 37.9c2.5 6.9 3.5 11.8 3.6 11.8h.1c.1 0 1.2-4.9 3.2-11.8l15-47.4h13.1l-25.6 78.1zm90.9 0h-54.4v-78.1h53.7V212h-41.3v20.3h32.9v10.9h-32.9v23.7h42v11.6zm38.4 1.6c-16.6 0-27.6-9.6-30.9-23.2l11.8-3.2c1.5 8.1 8.3 15.4 19.5 15.4 9.9 0 15.7-5.1 15.7-11.8 0-9.7-12.1-11.7-23.1-15.4-9.2-3.1-21.5-7.5-21.5-21.1 0-12.2 11.7-21.9 27.8-21.9 14.5 0 25.9 8.6 28.8 21.1l-11.8 3.2c-1.8-8.7-9.2-13.6-17.5-13.6-8.7 0-14.6 4.2-14.6 10.5 0 7.5 9.8 9.9 19.9 13.1 11.2 3.6 25.1 9 25.1 23.7-.1 13.4-11.8 23.2-29.2 23.2zm96.4-68.1h-25.3v66.5h-12.3V212h-25.2v-11.6h62.8V212zM104 310.2v124.7h336.3V310.2H104zm90.1 31.6h-40.6v22.9h32.1V376h-32.1v33H141v-78.9h53.1v11.7zm68.7 67.1h-54.9V330h54.2v11.7h-41.7v20.5h33.2v11h-33.2v23.9h42.4v11.8zm38.8 1.6c-16.8 0-27.8-9.7-31.2-23.4l11.9-3.3c1.5 8.2 8.3 15.5 19.7 15.5 10 0 15.9-5.2 15.9-11.9 0-9.8-12.2-11.8-23.3-15.5-9.2-3.2-21.7-7.6-21.7-21.3 0-12.3 11.8-22.1 28.1-22.1 14.6 0 26.1 8.7 29.1 21.3l-11.9 3.3c-1.8-8.8-9.2-13.7-17.7-13.7-8.8 0-14.8 4.3-14.8 10.6 0 7.6 9.9 10 20.1 13.2 11.3 3.6 25.4 9.1 25.4 23.9-.2 13.5-12 23.4-29.6 23.4zm97.4-68.7h-25.6V409H361v-67.2h-25.5v-11.7H399v11.7z"/><g><path d="M515.3 178.9c13.4 3.9 21.3 14.5 21.3 29.2 0 16.2-10.7 27.3-25 27.3-15.6 0-23.1-11.3-30-20.5-6.4-8.5-14.1-18.8-14.1-18.8l-.1.1c0 .1.5 6.3.5 16.2v23h-11.7v-55.8h10.1c9.9 11.6 19.7 23.1 29.6 34.7 4.2 5 9.6 8.6 15.6 8.6 8 0 14.1-6.2 14.1-15.1 0-9.6-6-15.1-13.3-17.2l3-11.7zM495.6 316.1c-22.2 0-41-13.3-41-36 0-22.5 18.8-35.7 41-35.7s41 13.2 41 35.7c.1 22.7-18.8 36-41 36zm0-58.9c-15.7 0-28.7 7.3-28.7 22.9 0 15.6 13.1 23 28.7 23 15.7 0 28.7-7.4 28.7-23 .1-15.5-13-22.9-28.7-22.9zM535.1 357h-78.9v-12.5h48.4c5.5 0 12.4.5 12.4.3v-.1c0-.1-4.3-3.6-6.8-6.2l-7.8-7.9 7.4-7.7 25.2 25.2v8.9zM503.6 391.5l-.1.1c2.8 2.4 5.2 5.9 5.2 12.4 0 16.7-12.2 27.3-27.3 27.3-15.7 0-26.8-12.7-26.8-30 0-16.7 10.9-29.8 27.5-29.8 11 0 19 4.4 29.2 12.1l23.8 18v13.5l-31.5-23.6zm-21.5 27.8c9.7.1 16.2-7 16.2-17.6 0-10.6-6.7-17.7-16.2-17.7-9.9 0-16.5 7.3-16.5 17.7 0 10.5 6.8 17.6 16.5 17.6z"/></g></g></svg>