<?xml version="1.0" encoding="UTF-8" standalone="no"?><!DOCTYPE svg PUBLIC "-//W3C//DTD SVG 1.1//EN" "http://www.w3.org/Graphics/SVG/1.1/DTD/svg11.dtd"><svg width="100%" height="100%" viewBox="0 0 2667 2000" version="1.1" xmlns="http://www.w3.org/2000/svg" xmlns:xlink="http://www.w3.org/1999/xlink" xml:space="preserve" style="fill-rule:evenodd;clip-rule:evenodd;stroke-linejoin:round;stroke-miterlimit:1.41421;"><g><g><path d="M2030.21,602.384l-49.332,0l0,-136.436l-151.987,0l0,136.436l-49.332,0l0,-311.087l49.332,0l0,128.879l151.987,0l0,-128.879l49.332,0l0,311.087Zm-298.229,-264.866l-100.884,0l0,264.866l-48.884,0l0,-264.866l-100.436,0l0,-46.221l250.204,0l0,46.221Zm-327.124,264.866l-65.773,-111.546c-3.109,0.441 -6.224,0.441 -9.776,0.441l-52.444,0l0,111.105l-49.329,0l0,-311.087l101.773,0c74.659,0 119.543,39.553 119.543,100.88c0,43.55 -22.661,75.108 -62.213,89.771l73.767,120.436l-55.548,0Zm-392.019,6.22c-89.326,0 -161.322,-67.996 -161.322,-161.767c0,-93.764 71.996,-161.76 161.322,-161.76c89.33,0 161.767,67.996 161.767,161.76c0,93.771 -72.437,161.767 -161.767,161.767Zm-215.578,-6.22l-46.221,0l-113.323,-152.877c-27.554,-37.774 -54.219,-76.438 -54.667,-76.438l-0.438,0c-0.448,0 0.886,41.776 0.886,97.328l0,131.987l-49.332,0l0,-311.087l46.22,0l114.216,153.324c22.22,30.221 53.326,73.768 53.774,73.768l0.438,0c0.448,0 -0.886,-45.773 -0.886,-94.657l0,-132.435l49.333,0l0,311.087Zm-363.931,-414.011l0,518.544l1786.44,0l0,-518.544l-1786.44,0Z" style="fill:#fff;fill-rule:nonzero;"/><path d="M1012.84,333.517c-63.991,0 -110.66,45.328 -110.66,113.32c0,67.11 46.669,113.327 110.66,113.327c63.551,0 110.657,-46.217 110.657,-113.327c0,-67.992 -47.106,-113.32 -110.657,-113.32Z" style="fill:#fff;fill-rule:nonzero;"/><path d="M1335.09,337.518l-58.219,0l0,110.211l58.219,0c42.216,0 62.665,-24.883 62.665,-55.552c0,-31.999 -22.22,-54.659 -62.665,-54.659Z" style="fill:#fff;fill-rule:nonzero;"/><path d="M1799.56,885.114l-105.388,0l0,276.692l-51.069,0l0,-276.692l-104.915,0l0,-48.285l261.372,0l0,48.285Zm-401.14,283.191c-69.17,0 -114.671,-39.928 -128.596,-96.566l49.212,-13.463c6.03,33.891 34.352,64.071 81.241,64.071c41.314,0 65.456,-21.362 65.456,-49.209c0,-40.4 -50.138,-48.756 -96.097,-64.074c-38.071,-13.005 -89.602,-31.11 -89.602,-87.74c0,-50.608 48.747,-90.994 115.598,-90.994c60.353,0 107.707,35.745 119.778,87.744l-49.208,13.463c-7.433,-36.217 -38.071,-56.641 -72.889,-56.641c-36.21,0 -60.817,17.64 -60.817,43.636c0,31.11 40.855,41.317 82.637,54.315c46.42,14.859 104.45,37.61 104.45,98.427c0,56.173 -48.743,97.031 -121.163,97.031Zm-159.74,-6.499l-226.089,0l0,-324.977l223.304,0l0,48.285l-171.77,0l0,84.484l136.952,0l0,45.5l-136.952,0l0,98.417l174.555,0l0,48.291Zm-377.952,0l-46.893,0l-51.992,-163.886c-12.998,-41.32 -16.248,-60.349 -16.717,-60.349l-0.465,0c-0.465,0 -3.715,19.497 -16.713,60.349l-51.992,163.886l-46.889,0l-105.849,-324.977l54.315,0l61.748,197.301c8.821,28.784 13.463,49.222 13.921,49.222l0.469,0c0.465,0 4.642,-20.438 14.855,-49.222l53.388,-157.842l46.428,0l53.384,157.842c10.214,28.784 14.398,49.222 14.856,49.222l0.465,0c0.465,0 5.11,-20.438 13.463,-49.222l62.21,-197.301l54.315,0l-106.307,324.977Zm-427.395,-417.852l0,518.543l1401.57,0l0,-518.543l-1401.57,0Z" style="fill:#fff;fill-rule:nonzero;"/><path d="M1660.34,1424.9l-106.393,0l0,279.328l-51.555,0l0,-279.328l-105.918,0l0,-48.74l263.866,0l0,48.74Zm-404.968,285.889c-69.832,0 -115.767,-40.307 -129.826,-97.475l49.68,-13.591c6.093,34.205 34.68,64.67 82.021,64.67c41.713,0 66.079,-21.554 66.079,-49.68c0,-40.779 -50.617,-49.208 -97.017,-64.67c-38.433,-13.136 -90.456,-31.407 -90.456,-88.589c0,-51.089 49.215,-91.855 116.7,-91.855c60.935,0 108.737,36.086 120.926,88.575l-49.681,13.594c-7.501,-36.558 -38.432,-57.182 -73.584,-57.182c-36.555,0 -61.393,17.815 -61.393,44.06c0,31.406 41.241,41.706 83.423,54.828c46.861,15.004 105.449,37.968 105.449,99.371c0,56.71 -49.211,97.944 -122.321,97.944Zm-161.27,-6.561l-228.246,0l0,-328.068l225.437,0l0,48.74l-173.41,0l0,85.294l138.258,0l0,45.941l-138.258,0l0,99.357l176.219,0l0,48.736Zm-285.921,-279.328l-168.728,0l0,95.149l133.572,0l0,46.855l-133.572,0l0,137.324l-52.027,0l0,-328.068l220.755,0l0,48.74Zm-374.851,-131.536l0,518.543l1398.62,0l0,-518.543l-1398.62,0Z" style="fill:#fff;fill-rule:nonzero;"/><path d="M2127.98,773.12c54.756,16.106 86.966,59.357 86.966,119.175c0,66.255 -43.712,111.345 -102.149,111.345c-63.502,0 -94.326,-46.01 -122.396,-83.743c-26.228,-34.508 -57.51,-76.838 -57.51,-76.838l-0.462,0.458c0,0.462 1.837,25.769 1.837,66.263l0,93.86l-47.85,0l0,-227.756l41.409,0c40.494,47.392 80.519,94.322 121.012,141.715c17.026,20.248 39.108,34.972 63.502,34.972c32.668,0 57.509,-25.314 57.509,-61.658c0,-39.112 -24.383,-61.658 -54.291,-70.401l12.423,-47.392Z" style="fill:#fff;fill-rule:nonzero;"/><path d="M2047.46,1092.88c-63.96,0 -117.335,29.911 -117.335,93.409c0,63.495 53.375,93.864 117.335,93.864c63.95,0 117.331,-30.369 117.331,-93.864c0,-63.498 -53.381,-93.409 -117.331,-93.409Zm0,240.189c-90.646,0 -167.487,-54.294 -167.487,-146.78c0,-92.027 76.841,-145.86 167.487,-145.86c90.635,0 167.484,53.833 167.484,145.86c0,92.486 -76.849,146.78 -167.484,146.78Z" style="fill:#fff;fill-rule:nonzero;"/><path d="M2208.49,1500.06l-322.079,0l0,-51.069l197.391,0c22.55,0 50.614,1.84 50.614,1.375l0,-0.458c0,-0.459 -17.485,-14.725 -27.606,-25.304l-31.751,-32.209l30.366,-31.289l103.065,103.068l0,35.886Z" style="fill:#fff;fill-rule:nonzero;"/><path d="M2208.49,1790.85l-30.363,0l-291.716,-163.803l0,-54.294l216.722,122.393c28.977,16.561 57.51,36.351 57.968,36.351l0.458,-0.465c0,-0.458 -0.916,-26.685 -0.916,-44.629l0,-130.677l47.847,0l0,235.124Z" style="fill:#fff;fill-rule:nonzero;"/></g></g></svg>