<?xml version="1.0" encoding="utf-8"?>
<!-- Generator: Adobe Illustrator 19.1.0, SVG Export Plug-In . SVG Version: 6.00 Build 0)  -->
<svg version="1.1" id="Layer_1" xmlns="http://www.w3.org/2000/svg" xmlns:xlink="http://www.w3.org/1999/xlink" x="0px" y="0px"
	 viewBox="0 0 640 480" enable-background="new 0 0 640 480" xml:space="preserve">
<g>
	<g>
		<path fill="#FFFFFF" d="M104,44.5v124.7h429.5V44.5H104z M191.4,144h-11.1l-27.2-36.8c-6.6-9.1-13-18.4-13.1-18.4h-0.1
			c-0.1,0,0.2,10,0.2,23.4V144h-11.9V69.2h11.1l27.5,36.9c5.3,7.3,12.8,17.7,12.9,17.7h0.1c0.1,0-0.2-11-0.2-22.8V69.2h11.9V144z
			 M243.3,145.5c-21.5,0-38.8-16.3-38.8-38.9c0-22.5,17.3-38.9,38.8-38.9c21.5,0,38.9,16.3,38.9,38.9
			C282.2,129.2,264.8,145.5,243.3,145.5z M337.5,144l-15.8-26.8c-0.7,0.1-1.5,0.1-2.4,0.1h-12.6V144h-11.9V69.2h24.5
			c18,0,28.7,9.5,28.7,24.3c0,10.5-5.4,18.1-15,21.6l17.7,29H337.5z M416.2,80.4h-24.3V144h-11.8V80.4H356V69.2h60.2V80.4z
			 M487.9,144H476v-32.8h-36.5V144h-11.9V69.2h11.9v31H476v-31h11.9V144z"/>
		<path fill="#FFFFFF" d="M243.3,79.4c-15.4,0-26.6,10.9-26.6,27.2c0,16.1,11.2,27.2,26.6,27.2c15.3,0,26.6-11.1,26.6-27.2
			C269.9,90.3,258.6,79.4,243.3,79.4z"/>
		<path fill="#FFFFFF" d="M320.8,80.4h-14v26.5h14c10.1,0,15.1-6,15.1-13.4C335.8,85.8,330.5,80.4,320.8,80.4z"/>
	</g>
	<path fill="#FFFFFF" d="M104,178.1v124.7h337V178.1H104z M206.7,278.5h-11.3l-12.5-39.4c-3.1-9.9-3.9-14.5-4-14.5h-0.1
		c-0.1,0-0.9,4.7-4,14.5l-12.5,39.4H151l-25.4-78.1h13.1l14.8,47.4c2.1,6.9,3.2,11.8,3.3,11.8h0.1c0.1,0,1.1-4.9,3.6-11.8l12.8-37.9
		h11.2l12.8,37.9c2.5,6.9,3.5,11.8,3.6,11.8h0.1c0.1,0,1.2-4.9,3.2-11.8l15-47.4h13.1L206.7,278.5z M297.6,278.5h-54.4v-78.1h53.7
		V212h-41.3v20.3h32.9v10.9h-32.9v23.7h42V278.5z M336,280.1c-16.6,0-27.6-9.6-30.9-23.2l11.8-3.2c1.5,8.1,8.3,15.4,19.5,15.4
		c9.9,0,15.7-5.1,15.7-11.8c0-9.7-12.1-11.7-23.1-15.4c-9.2-3.1-21.5-7.5-21.5-21.1c0-12.2,11.7-21.9,27.8-21.9
		c14.5,0,25.9,8.6,28.8,21.1l-11.8,3.2c-1.8-8.7-9.2-13.6-17.5-13.6c-8.7,0-14.6,4.2-14.6,10.5c0,7.5,9.8,9.9,19.9,13.1
		c11.2,3.6,25.1,9,25.1,23.7C365.1,270.3,353.4,280.1,336,280.1z M432.4,212h-25.3v66.5h-12.3V212h-25.2v-11.6h62.8V212z"/>
	<path fill="#FFFFFF" d="M104,310.2v124.7h336.3V310.2H104z M194.1,341.8h-40.6v22.9h32.1v11.3h-32.1v33H141v-78.9h53.1V341.8z
		 M262.8,408.9h-54.9v-78.9h54.2v11.7h-41.7v20.5h33.2v11h-33.2v23.9h42.4V408.9z M301.6,410.5c-16.8,0-27.8-9.7-31.2-23.4l11.9-3.3
		c1.5,8.2,8.3,15.5,19.7,15.5c10,0,15.9-5.2,15.9-11.9c0-9.8-12.2-11.8-23.3-15.5c-9.2-3.2-21.7-7.6-21.7-21.3
		c0-12.3,11.8-22.1,28.1-22.1c14.6,0,26.1,8.7,29.1,21.3l-11.9,3.3c-1.8-8.8-9.2-13.7-17.7-13.7c-8.8,0-14.8,4.3-14.8,10.6
		c0,7.6,9.9,10,20.1,13.2c11.3,3.6,25.4,9.1,25.4,23.9C331,400.6,319.2,410.5,301.6,410.5z M399,341.8h-25.6v67.2H361v-67.2h-25.5
		v-11.7H399V341.8z"/>
	<g>
		<path fill="#FFFFFF" d="M515.3,178.9c13.4,3.9,21.3,14.5,21.3,29.2c0,16.2-10.7,27.3-25,27.3c-15.6,0-23.1-11.3-30-20.5
			c-6.4-8.5-14.1-18.8-14.1-18.8l-0.1,0.1c0,0.1,0.5,6.3,0.5,16.2v23h-11.7v-55.8h10.1c9.9,11.6,19.7,23.1,29.6,34.7
			c4.2,5,9.6,8.6,15.6,8.6c8,0,14.1-6.2,14.1-15.1c0-9.6-6-15.1-13.3-17.2L515.3,178.9z"/>
		<path fill="#FFFFFF" d="M495.6,316.1c-22.2,0-41-13.3-41-36c0-22.5,18.8-35.7,41-35.7c22.2,0,41,13.2,41,35.7
			C536.7,302.8,517.8,316.1,495.6,316.1z M495.6,257.2c-15.7,0-28.7,7.3-28.7,22.9c0,15.6,13.1,23,28.7,23c15.7,0,28.7-7.4,28.7-23
			C524.4,264.6,511.3,257.2,495.6,257.2z"/>
		<path fill="#FFFFFF" d="M535.1,357h-78.9v-12.5h48.4c5.5,0,12.4,0.5,12.4,0.3v-0.1c0-0.1-4.3-3.6-6.8-6.2l-7.8-7.9l7.4-7.7
			l25.2,25.2V357z"/>
		<path fill="#FFFFFF" d="M503.6,391.5l-0.1,0.1c2.8,2.4,5.2,5.9,5.2,12.4c0,16.7-12.2,27.3-27.3,27.3c-15.7,0-26.8-12.7-26.8-30
			c0-16.7,10.9-29.8,27.5-29.8c11,0,19,4.4,29.2,12.1l23.8,18v13.5L503.6,391.5z M482.1,419.3c9.7,0.1,16.2-7,16.2-17.6
			c0-10.6-6.7-17.7-16.2-17.7c-9.9,0-16.5,7.3-16.5,17.7C465.6,412.2,472.4,419.3,482.1,419.3z"/>
	</g>
</g>
</svg>
